# xmcd
#
# Track frame offsets:
#	150
#	13798
#	28839
#	41561
#	54754
#	72251
#	82975
#	97339
#	107299
#	119799
#	134428
#	147521
#	155460
#
# Disc length: 2259 seconds
#
# Revision: 1
# Processed by: cddbd v1.5.2PL0 Copyright (c) Steve Scherf et al.
# Submitted via: audiograbber 1.83.01
#
DISCID=b408d10d
DTITLE=Micky Romero - Fire In The Country Trash
DYEAR=2010
DGENRE=Country
TTITLE0=Make My Day
TTITLE1=Ridin' Home
TTITLE2=I Don't Wanna Fall
TTITLE3=Poison For My Heart
TTITLE4=Fool Again
TTITLE5=Thing Called Love
TTITLE6=I Still Want You Back Again
TTITLE7=I Don't Care Anymore
TTITLE8=Waiting For A Train
TTITLE9=Not For Me
TTITLE10=Texas Girl
TTITLE11=Yakety Axe
TTITLE12=Flesh And Blood
EXTD=
EXTT0=
EXTT1=
EXTT2=
EXTT3=
EXTT4=
EXTT5=
EXTT6=
EXTT7=
EXTT8=
EXTT9=
EXTT10=
EXTT11=
EXTT12=
PLAYORDER=
